<svg width="200" height="200" viewBox="0 0 200 200" fill="none" xmlns="http://www.w3.org/2000/svg">
<circle cx="48.2072" cy="48.2072" r="48.2072" fill="black"/>
<circle cx="151.793" cy="151.793" r="48.2072" fill="black"/>
<path d="M0 103.586H96.4143V149.004C96.4143 177.168 73.5826 200 45.4183 200H0V103.586Z" fill="black"/>
<path d="M103.586 50.996C103.586 22.8317 126.417 0 154.582 0H200V96.4143H103.586V50.996Z" fill="black"/>
<path d="M62.8068 30.6364V67H54.5682L41.429 47.8949H41.2159V67H31.3438V30.6364H39.7244L52.6506 49.6705H52.9347V30.6364H62.8068Z" fill="#C6BEAC"/>
<path d="M154.946 146C154.851 144.816 154.407 143.893 153.614 143.23C152.833 142.567 151.643 142.236 150.045 142.236C149.027 142.236 148.193 142.36 147.542 142.609C146.903 142.845 146.429 143.171 146.121 143.585C145.814 144 145.654 144.473 145.642 145.006C145.618 145.444 145.695 145.84 145.873 146.195C146.062 146.539 146.358 146.852 146.761 147.136C147.163 147.409 147.678 147.657 148.305 147.882C148.933 148.107 149.679 148.308 150.543 148.486L153.526 149.125C155.538 149.551 157.26 150.113 158.692 150.812C160.125 151.51 161.297 152.333 162.208 153.28C163.12 154.215 163.788 155.268 164.214 156.44C164.652 157.612 164.877 158.891 164.889 160.276C164.877 162.667 164.28 164.691 163.096 166.348C161.912 168.005 160.219 169.266 158.018 170.13C155.828 170.994 153.194 171.426 150.116 171.426C146.956 171.426 144.198 170.959 141.842 170.023C139.499 169.088 137.676 167.65 136.374 165.709C135.083 163.756 134.432 161.258 134.42 158.216H143.795C143.855 159.329 144.133 160.264 144.63 161.021C145.127 161.779 145.826 162.353 146.725 162.744C147.637 163.134 148.72 163.33 149.974 163.33C151.028 163.33 151.91 163.199 152.62 162.939C153.33 162.679 153.869 162.317 154.236 161.856C154.603 161.394 154.792 160.867 154.804 160.276C154.792 159.719 154.609 159.234 154.254 158.82C153.91 158.393 153.342 158.015 152.549 157.683C151.756 157.34 150.685 157.02 149.335 156.724L145.713 155.943C142.493 155.245 139.954 154.079 138.096 152.445C136.249 150.8 135.332 148.557 135.344 145.716C135.332 143.408 135.947 141.389 137.19 139.661C138.445 137.921 140.179 136.566 142.393 135.595C144.618 134.625 147.169 134.139 150.045 134.139C152.981 134.139 155.52 134.63 157.663 135.613C159.805 136.595 161.456 137.98 162.616 139.768C163.788 141.543 164.38 143.621 164.392 146H154.946Z" fill="#C6BEAC"/>
</svg>
